<?xml version="1.0" encoding="UTF-8"?>
<svg width="240" height="240" viewBox="0 0 240 240" fill="none" xmlns="http://www.w3.org/2000/svg">
  <rect x="28" y="28" width="184" height="184" rx="44" fill="#0F766E"/>
  <path d="M70 86C70 75.5 78.5 67 89 67H120V173H89C78.5 173 70 164.5 70 154V86Z" fill="#ECFEFF"/>
  <path d="M120 67H151C161.5 67 170 75.5 170 86V154C170 164.5 161.5 173 151 173H120V67Z" fill="#CCFBF1"/>
  <path d="M120 67V173" stroke="#0F766E" stroke-width="6" stroke-linecap="round"/>
  <circle cx="82" cy="72" r="12" fill="#F59E0B"/>
  <circle cx="176" cy="96" r="10" fill="#38BDF8"/>
  <circle cx="165" cy="174" r="13" fill="#A7F3D0"/>
  <path d="M88 72L128 102L176 96" stroke="#ECFEFF" stroke-width="7" stroke-linecap="round" stroke-linejoin="round"/>
  <path d="M128 102L165 174" stroke="#ECFEFF" stroke-width="7" stroke-linecap="round" stroke-linejoin="round"/>
  <circle cx="128" cy="102" r="15" fill="#164E63"/>
  <circle cx="128" cy="102" r="6" fill="#ECFEFF"/>
</svg>
